<svg xmlns="http://www.w3.org/2000/svg" viewBox="0 0 334.02 333.49"><g data-name="Layer_1"><path d="M178.58 13.57c10.88 9.93 23.66 15.55 38.36 16.36 10.64.58 20.75-1.79 30.25-6.69 1.09-.56 2.18-1.14 3.76-1.96.31 17.01 5.67 31.77 17.53 43.69 11.92 11.98 26.65 17.45 43.79 17.74-3.41 6.57-6.19 13-7.56 20.05-4.65 23.96 5.9 48.54 26.7 61.65q3.46 2.18.11 4.29c-26.21 16.44-35.42 50.11-21.28 77.79.61 1.2 1.24 2.39 2.05 3.97-17.08.29-31.8 5.74-43.7 17.67-11.85 11.87-17.32 26.51-17.57 43.19-1.36.56-2.16-.5-3.05-.97-28.37-14.84-61.81-5.94-78.78 21.18-1.91 3.06-2.46 2.19-3.97-.17-11.82-18.43-28.91-27.69-50.6-28.18-9.69-.22-18.98 2.26-27.6 6.9-.88.47-1.75.94-2.65 1.37-.2.09-.48.01-.72.02-.9-36.17-27.51-60.63-61.41-61.09 2.63-5.09 5.18-10.07 6.53-15.51 5.35-21.51.24-40.41-14.28-56.92.22-1.79 1.86-2.22 3.01-3.07 16.41-12.1 24.96-28.35 25.47-48.73.25-10.04-2.48-19.44-7.02-28.33-1.13-2.21-1.35-3.45 1.77-3.23 4.01.28 7.91-.64 11.76-1.57 26.42-6.37 45.03-29.13 45.84-56.18.09-3.12 1.04-2.86 3.26-1.77 11.27 5.54 22.96 8.28 35.68 6.43 17.5-2.54 31.14-11.02 41.43-25.24.76-1.05 1.2-2.57 2.87-2.69ZM93.86 245.31c.26.28.53.56.79.84 1.23 1.95 3.17 3.11 4.9 4.52 17.07 13.98 36.81 21.7 58.56 23.71 14.94 1.38 29.79-.37 44.08-5.4 19.74-6.95 36.15-18.63 49.31-34.93 13.85-17.16 21.63-36.88 23.38-58.72 1.73-21.59-2.61-42.14-13.31-61.14-4.34-7.71-9.01-15.19-15.78-21.08-.24-.3-.47-.6-.71-.9l-.57-.6c-2.79-3.21-5.89-6.07-9.22-8.71-26.55-20.99-56.52-28.8-89.64-21.92-35.65 7.41-61.19 28.36-76.62 61.28-9.33 19.92-11.82 41.06-7.98 62.73 4.07 22.99 14.3 42.85 31.33 59.01.2.19.41.38.61.58l.91.79-.04-.04Z" style="fill:#f69346"/><path d="M178.58 13.57c-1.68.12-2.11 1.63-2.87 2.69-10.29 14.22-23.94 22.7-41.43 25.24-12.72 1.85-24.41-.89-35.68-6.43-2.21-1.09-3.17-1.34-3.26 1.77-.81 27.04-19.42 49.8-45.84 56.18-3.85.93-7.75 1.86-11.76 1.57-3.13-.22-2.9 1.02-1.77 3.23 4.53 8.88 7.27 18.29 7.02 28.33-.51 20.38-9.06 36.64-25.47 48.73-1.15.85-2.79 1.28-3.01 3.07-4.17-4.32-8.93-7.9-14.49-11.26 2.32-1.59 4.37-2.91 6.33-4.35 24.19-17.68 31.64-50.01 17.53-76.52-1.49-2.8-.92-3.17 1.94-3.26 29.15-.87 52.95-22.51 56.99-51.72.29-2.1.61-4.21.59-6.32-.03-2.53.5-3.09 2.91-1.75 8.53 4.76 17.77 7.34 27.52 7.28 21.94-.14 39.13-9.44 51.21-27.83 1.92-2.92 2.76-3.03 4.44.02 2.36 4.29 5.7 7.85 9.13 11.31Z" style="fill:#f8b263"/><path d="M92.99 244.56c-.2-.19-.41-.38-.61-.58.12-1.18-.3-2.1-.99-3.09-16.57-23.98-23.05-50.36-18.49-79.26 4.23-26.82 16.81-49.01 37.78-66.2 22.87-18.75 49.05-26.96 78.65-24.14 19.13 1.82 36.5 8.08 52.08 19.31.98.71 1.91 1.11 3.09.98.19.2.38.4.57.61.24.3.47.6.71.9 6.77 5.89 11.44 13.38 15.78 21.08 10.7 19 15.04 39.55 13.31 61.14-1.75 21.85-9.53 41.56-23.38 58.72-13.16 16.31-29.57 27.98-49.31 34.93-14.29 5.03-29.14 6.78-44.08 5.4-21.75-2.01-41.49-9.73-58.56-23.71-1.73-1.42-3.67-2.58-4.9-4.52-.26-.28-.53-.56-.79-.83l.04.04-.91-.79Z" style="fill:#f6e25b"/><path d="M244.51 91.6c-1.17.12-2.1-.27-3.09-.98-15.58-11.23-32.96-17.49-52.08-19.31-29.6-2.82-55.78 5.38-78.65 24.14-20.97 17.19-33.55 39.38-37.78 66.2-4.56 28.9 1.91 55.28 18.49 79.26.69.99 1.11 1.91.99 3.09-17.03-16.16-27.26-36.01-31.33-59-3.84-21.68-1.36-42.81 7.98-62.73 15.42-32.92 40.97-53.87 76.62-61.28 33.12-6.88 63.09.93 89.64 21.92 3.33 2.64 6.44 5.5 9.22 8.71Zm1.27 1.5c-.24-.3-.47-.6-.71-.9.24.3.47.6.71.9M92.99 244.56l.91.79zm.87.75c.26.28.53.56.79.83-.26-.28-.53-.56-.79-.83" style="fill:#fef384"/></g></svg>